<svg xmlns="http://www.w3.org/2000/svg" viewBox="0 0 256 256"><defs><style>.cls-1{fill:#1d384d;}</style></defs><title>secure</title><g id="icons_without_caption" data-name="icons without caption"><g id="SECURE"><path class="cls-1" d="M128,195.56l-17.56-11.35a71,71,0,0,1-32.57-59.84V76.71L128,58l50.13,18.73v47.66a71,71,0,0,1-32.57,59.84ZM81.87,79.49v44.88a67,67,0,0,0,30.74,56.48L128,190.79l15.38-9.95a67,67,0,0,0,30.74-56.48V79.49L128,62.25Z"/><path class="cls-1" d="M128,219.37,99.59,201a90.91,90.91,0,0,1-41.71-76.63V62.84L128,36.63l70.13,26.21v61.53A90.91,90.91,0,0,1,156.41,201ZM61.87,65.61v58.76a86.92,86.92,0,0,0,39.88,73.27l26.24,17,26.24-17a86.92,86.92,0,0,0,39.88-73.27V65.61L128,40.9Z"/><polygon class="cls-1" points="123.22 139.64 108.42 123.94 111.32 121.2 123.35 133.94 151.19 106.91 153.98 109.78 123.22 139.64"/></g></g></svg>